<svg id="Layer_1" data-name="Layer 1" xmlns="http://www.w3.org/2000/svg" viewBox="0 0 1648 2118"><defs><style>.cls-1{fill:#fff;}.cls-2{fill:#1a1a1a;}.cls-3{fill:#22b573;}.cls-4{opacity:0.81;}</style></defs><path class="cls-1" d="M1479.2,1491.89a824.12,824.12,0,0,1-1050.76-10.24L546.82,1307c-59,11-120.76,34.88-179.92,73.2,89.5-80.33,178.05-147.55,253.45-181.66l330-486.77Z" transform="translate(-136 -28)"/><path class="cls-1" d="M1784,852a820.14,820.14,0,0,1-122.28,432.15L1112,473.31,952.15,237.48l-1.8-1.22-1.8,1.22L788.67,473.31,249.2,1269.07C177.25,1146.74,136,1004.19,136,852,136,396.91,504.91,28,960,28S1784,396.91,1784,852Z" transform="translate(-136 -28)"/><polygon class="cls-2" points="786 352.33 783.95 353.72 785.24 351.81 786 352.33"/><polygon class="cls-2" points="788.05 353.72 786 352.33 786.76 351.81 788.05 353.72"/><path class="cls-3" d="M938,1384q8.07-2,16.15-3.85Q946.1,1382,938,1384Z" transform="translate(-136 -28)"/><path class="cls-3" d="M1101,1889l-7.6,3.74q4.9-2.65,9.7-5.39c72.51-41,130.25-91.5,174.13-146,121.13-150.44,136.6-331.54,65.63-429.76a200.71,200.71,0,0,0-37.19-38.83c-79.57-64-214.76-83-351.66-52.09,363.16-85.34,664.48-47.23,713.3,71.83C1719.25,1419.24,1506,1688.63,1101,1889Z" transform="translate(-136 -28)"/><path class="cls-4" d="M1113,2146q5.58-3,11-6.14l-2.39,1.88Z" transform="translate(-136 -28)"/></svg>